PathFileType	4	(X/Y/Z)	FAILT01_SDP01_markers.trc
DataRate	CameraRate	NumFrames	NumMarkers	Units	OrigDataRate	OrigDataStartFrame	OrigNumFrames
100	100	4	59	mm	100	391	446
Frame#	Time	RSH			LSH			C7			LELB			LWR			RELB			RWR			RASI			LASI			SACR			P1			P2			P3			LTHLP			LTHLD			LTHAP			LTHAD			LLEPI			LPAT			LTIAP			LTIAD			LTILAT			LLMAL			LHEEL			LMFS			LMFL			LP5MT			LP1MT			LTOE			RTHLP			RTHLD			RTHAP			RTHAD			RLEPI			RPAT			RTIAP			RTIAD			RTILAT			RLMAL			RHEEL			RMFS			RMFL			RP5MT			RP1MT			RTOE			P4			*46			*47			*48			*49			*50			*51			*52			*53			*54			*55			*56			*57			*58			
		X1	Y1	Z1	X2	Y2	Z2	X3	Y3	Z3	X4	Y4	Z4	X5	Y5	Z5	X6	Y6	Z6	X7	Y7	Z7	X8	Y8	Z8	X9	Y9	Z9	X10	Y10	Z10	X11	Y11	Z11	X12	Y12	Z12	X13	Y13	Z13	X14	Y14	Z14	X15	Y15	Z15	X16	Y16	Z16	X17	Y17	Z17	X18	Y18	Z18	X19	Y19	Z19	X20	Y20	Z20	X21	Y21	Z21	X22	Y22	Z22	X23	Y23	Z23	X24	Y24	Z24	X25	Y25	Z25	X26	Y26	Z26	X27	Y27	Z27	X28	Y28	Z28	X29	Y29	Z29	X30	Y30	Z30	X31	Y31	Z31	X32	Y32	Z32	X33	Y33	Z33	X34	Y34	Z34	X35	Y35	Z35	X36	Y36	Z36	X37	Y37	Z37	X38	Y38	Z38	X39	Y39	Z39	X40	Y40	Z40	X41	Y41	Z41	X42	Y42	Z42	X43	Y43	Z43	X44	Y44	Z44	X45	Y45	Z45	X46	Y46	Z46	X47	Y47	Z47	X48	Y48	Z48	X49	Y49	Z49	X50	Y50	Z50	X51	Y51	Z51	X52	Y52	Z52	X53	Y53	Z53	X54	Y54	Z54	X55	Y55	Z55	X56	Y56	Z56	X57	Y57	Z57	X58	Y58	Z58	X59	Y59	Z59
391	        3.8999998569	    -2733.2370281219	     1375.1434087753	      257.1284323931	    -2747.4892139435	     1419.5463657379	      532.2193503380	    -2671.7255115509	     1446.2141990662	      388.8456146233	    -2893.8395977020	     1158.6924791336	      542.3803031445	    -2873.6720085144	     1274.1913795471	      342.9777361453	    -2933.0232143402	     1185.6262683868	      270.7475721836	    -2890.3229236603	     1291.4348840714	      481.2554046512	    -2838.5674953461	      955.2372097969	      312.2692704201	    -2816.4772987366	      948.0753540993	      532.2306752205	    -2645.8616256714	     1021.5311050415	      400.8337073028	    -2642.1341896057	     1019.1838741302	      453.0096352100	    -2649.5893001556	     1023.8782167435	      348.6577756703	    -2625.1380443573	      958.4911465645	      400.2858288586	    -2809.9372386932	      719.5044755936	      588.7116044760	    -2843.2176113129	      626.6099214554	      573.2368528843	    -2910.2809429169	      754.4298171997	      521.3960111141	    -2944.9560642242	      654.5648574829	      513.4517550468	    -2883.5060596466	      517.0676112175	      561.4392906427	    -2969.1016674042	      506.2755346298	      499.0939050913	    -2806.0951232910	      379.9929618835	      496.0073828697	    -2708.1813812256	      322.1948444843	      493.9526095986	    -2730.2095890045	      390.4086351395	      563.7761056423	    -2581.6984176636	      273.4549939632	      540.7781600952	    -2513.4453773499	      303.1845986843	      495.9324970841	    -2623.7599849701	      199.7676342726	      483.3908230066	    -2586.6210460663	      204.1481882334	      535.6225669384	    -2577.4996280670	      141.7159289122	      557.1099668741	    -2604.2013168335	      140.3430253267	      432.8080229461	    -2646.5129852295	      115.0761395693	      467.4407690763	    -2830.6331634521	      729.6713590622	      239.9736940861	    -2868.8135147095	      637.0981335640	      269.1803723574	    -2913.1777286530	      769.0104842186	      353.6614403129	    -2933.5505962372	      674.5761632919	      365.1711586863	    -2907.4096679688	      526.2670516968	      292.4105897546	    -2963.6678695679	      561.1350536346	      373.9531924948	    -2926.4838695526	      347.3398387432	      370.1517442241	    -2908.5698127747	      246.2857216597	      375.9943195619	    -2887.3889446259	      294.3392395973	      300.4616275430	    -2866.3167953491	      123.0766475201	      327.3903429508	    -2803.1911849976	       87.9356563091	      361.9088865817	    -2951.7035484314	      110.0772917271	      382.7143912786	     -300.7080554962	        0.0000000000	      382.1262419224	    -2974.9057292938	       59.9322281778	      314.4978880882	    -2983.8571548462	       64.5909979939	      441.3497038186	    -3039.3729209900	       75.9546011686	      403.6517087370	    -2651.4458656311	     1039.0301942825	      403.5440683365	    -2648.1497287750	      109.6624583006	      493.8971772790	     -300.7080554962	        0.0000000000	      382.1262419224	    -2923.9156246185	       81.9816440344	      333.6036391556	    -2736.1657619476	      450.4708647728	      642.0294344425	    -2896.6815471649	      141.9715434313	      313.4394884109	     -300.7080554962	        0.0000000000	      382.1262419224	     -300.7080554962	        0.0000000000	      382.1262419224	    -2714.3244743347	      339.6459519863	      539.5112633705	     -300.7080554962	        0.0000000000	      382.1262419224	     -300.7080554962	        0.0000000000	      382.1262419224	     -300.7080554962	        0.0000000000	      382.1262419224	     -300.7080554962	        0.0000000000	      382.1262419224	     -300.7080554962	        0.0000000000	      382.1262419224
392	        3.9099998474	    -2743.2699203491	     1378.0939579010	      257.1694701910	    -2757.9588890076	     1422.4382638931	      532.2947502136	    -2682.0092201233	     1449.0767717361	      388.9071084559	    -2903.9771556854	     1161.2899303436	      542.1524494886	    -2883.8460445404	     1277.0159244537	      342.7480794489	    -2943.2756900787	     1188.8446807861	      270.8104997873	    -2900.4585742950	     1294.0649986267	      481.3236072659	    -2847.2082614899	      957.5300812721	      311.0868185759	    -2827.4571895599	      951.0783553123	      531.2131941319	    -2655.5085182190	     1024.2903232574	      401.8661696464	    -2652.3361206055	     1022.0670700073	      454.1129618883	    -2658.6809158325	     1026.5136957169	      349.6193774045	    -2634.8505020142	      961.2584710121	      401.7165992409	    -2824.4199752808	      724.5455384254	      589.7621363401	    -2860.2616786957	      632.6386332512	      574.4150727987	    -2923.6152172089	      762.0408535004	      522.6002186537	    -2961.0922336578	      662.9298329353	      514.3471509218	    -2902.7841091156	      524.4673490524	      561.8587732315	    -2988.7123107910	      515.4603719711	      499.8760819435	    -2827.0022869110	      384.9635720253	      499.0478307009	    -2736.4773750305	      321.1151957512	      500.0944733620	    -2752.4623870850	      393.9425051212	      565.3828978539	    -2608.6626052856	      270.3428566456	      543.8632220030	    -2539.7441387177	      295.4156398773	      497.6155161858	    -2655.3738117218	      197.2546577454	      488.1790429354	    -2618.3233261108	      200.6143182516	      538.8949215412	    -2611.0699176788	      139.0092372894	      563.2638931274	    -2639.7802829742	      136.1870467663	      439.3243305385	    -2682.7464103699	      114.0246540308	      475.1354008913	    -2836.5755081177	      731.5880656242	      239.1607612371	    -2873.4083175659	      638.1711959839	      267.8050398827	    -2919.4681644440	      769.6062326431	      352.2647544742	    -2939.8958683014	      674.7325062752	      362.0433490723	    -2909.9004268646	      526.4115333557	      290.5579060316	    -2968.2278633118	      560.5306625366	      370.7654951140	    -2928.7724494934	      347.4403023720	      368.4404687956	    -2910.1293087006	      246.5134561062	      374.7898400761	    -2887.8839015961	      294.5725917816	      299.4489446282	    -2867.4104213715	      122.6491704583	      328.3787183464	    -2803.5521507263	       88.7225791812	      362.2424080968	    -2952.0640373230	      110.1256459951	      382.5738130254	     -300.7080554962	        0.0000000000	      382.1262419224	    -2974.9572277069	       59.8924681544	      314.4256174564	    -2983.9179515839	       64.7097229958	      441.4135701954	    -3039.5848751068	       75.7639408112	      403.5953301936	    -2661.0922813416	     1041.7802333832	      404.4053908437	     -300.7080554962	        0.0000000000	      382.1262419224	    -2389.3086910248	      311.5290701389	       70.3910887241	    -2924.0944385529	       82.0524245501	      333.5230872035	     -300.7080554962	        0.0000000000	      382.1262419224	    -2897.0241546631	      141.9385522604	      313.2207989693	     -300.7080554962	        0.0000000000	      382.1262419224	     -300.7080554962	        0.0000000000	      382.1262419224	     -300.7080554962	        0.0000000000	      382.1262419224	     -300.7080554962	        0.0000000000	      382.1262419224	     -300.7080554962	        0.0000000000	      382.1262419224	     -300.7080554962	        0.0000000000	      382.1262419224	     -300.7080554962	        0.0000000000	      382.1262419224	     -300.7080554962	        0.0000000000	      382.1262419224
393	        3.9199998379	    -2753.0229091644	     1380.9425830841	      257.2408840060	    -2768.3765888214	     1425.2024888992	      532.3234796524	    -2692.1765804291	     1451.8326520920	      389.1622554511	    -2914.3691062927	     1163.9225482941	      541.7438894510	    -2894.0091133118	     1279.8587083817	      342.0458771288	    -2953.1388282776	     1191.9089555740	      270.6572115421	    -2910.3674888611	     1296.5387105942	      480.9500426054	    -2855.3586006165	      959.6980810165	      310.2230951190	    -2838.2856845856	      953.9286494255	      530.2014350891	    -2665.3888225555	     1026.8845558167	      403.4262485802	    -2663.1121635437	     1024.7287750244	      456.1853632331	    -2667.6657199860	     1029.0404558182	      350.6671302021	    -2644.4139480591	      963.8702273369	      403.1699262559	    -2838.8233184814	      729.5404076576	      590.7395780087	    -2876.8322467804	      638.5258436203	      575.6724625826	    -2936.6519451141	      769.3455219269	      523.1719017029	    -2976.6266345978	      670.8927154541	      515.0537490845	    -2921.3795661926	      531.6334962845	      562.1318817139	    -3007.4388980865	      524.4415402412	      500.3492683172	    -2850.1083850861	      388.5642290115	      501.9769519567	    -2761.4760398865	      321.2425708771	      501.7140209675	    -2774.3525505066	      396.6021239758	      566.9440776110	    -2636.2473964691	      266.1680281162	      546.9959825277	    -2566.6234493256	      286.3649427891	      499.2812573910	    -2687.5667572021	      194.6086436510	      494.0511658788	    -2649.7662067413	      197.1801966429	      543.7793880701	    -2645.6446647644	      135.9214335680	      569.9916929007	    -2675.9285926819	      131.6560804844	      446.2968111038	    -2719.7618484497	      112.8336787224	      483.1852242351	    -2842.0922756195	      733.2593202591	      238.6298179626	    -2877.2890567780	      638.9790177345	      266.7391598225	    -2925.9915351868	      769.9772715569	      350.6507277489	    -2946.0406303406	      674.6733188629	      359.0445574373	    -2911.7650985718	      526.4968872070	      288.9004126191	    -2972.4447727203	      559.8657727242	      367.9968323559	    -2931.0915470123	      347.2581803799	      366.6829103604	    -2911.7312431335	      246.5669065714	      373.5215421766	    -2888.0233764648	      294.7227656841	      298.5269576311	    -2867.7310943604	      122.8101626039	      328.3821716905	    -2803.8070201874	       89.4453749061	      362.4515179545	    -2952.3818492889	      110.2124601603	      382.4921138585	     -300.7080554962	        0.0000000000	      382.1262419224	    -2975.0170707703	       59.8709098995	      314.3290132284	    -2985.3639602661	       64.0040412545	      439.4178688526	    -3039.8359298706	       75.5648240447	      403.4989587963	    -2670.6111431122	     1044.4133281708	      405.3285196424	    -2720.1251983643	      102.9309704900	      504.5083835721	     -300.7080554962	        0.0000000000	      382.1262419224	    -2924.2682456970	       82.1405202150	      333.5135020316	     -300.7080554962	        0.0000000000	      382.1262419224	     -300.7080554962	        0.0000000000	      382.1262419224	     -300.7080554962	        0.0000000000	      382.1262419224	     -300.7080554962	        0.0000000000	      382.1262419224	     -300.7080554962	        0.0000000000	      382.1262419224	     -300.7080554962	        0.0000000000	      382.1262419224	     -300.7080554962	        0.0000000000	      382.1262419224	     -300.7080554962	        0.0000000000	      382.1262419224	     -300.7080554962	        0.0000000000	      382.1262419224	     -300.7080554962	        0.0000000000	      382.1262419224
394	        3.9299998283	    -2762.5758647919	     1383.7074041367	      257.3681771755	    -2778.8023948669	     1427.8779029846	      532.3510915041	    -2702.1644115448	     1454.4761180878	      389.5056177862	    -2924.9262809753	     1166.6294336319	      541.1647707224	    -2903.7034511566	     1282.5722694397	      341.6439071298	    -2962.7366065979	     1194.7952508926	      270.1367363334	    -2920.5491542816	     1299.1774082184	      480.5234819651	    -2862.7443313599	      961.7050290108	      309.8700940609	    -2849.1463661194	      956.6124677658	      529.1493535042	    -2674.8025417328	     1029.4659137726	      404.3895229697	    -2673.0592250824	     1027.4041891098	      457.1598768234	    -2676.5460968018	     1031.5274000168	      351.6191709787	    -2653.8259983063	      966.4420485497	      404.5436065644	    -2853.1410694122	      734.5036268234	      591.6782021523	    -2893.0253982544	      644.1960930824	      576.6240060329	    -2949.2812156677	      776.2644290924	      523.0747610331	    -2991.5463924408	      678.4566044807	      515.3946131468	    -2939.2642974854	      538.4591817856	      561.9930028915	    -3025.3643989563	      533.0786705017	      500.5083382130	    -2873.1648921967	      391.6565179825	      504.6685785055	    -2786.3767147064	      321.5126097202	      503.0893608928	    -2796.1115837097	      398.2524275780	      568.4687644243	    -2664.3676757812	      261.1678838730	      550.4880696535	    -2594.2530632019	      276.0236859322	      501.4291256666	    -2720.6647396088	      191.3452446461	      500.6028860807	    -2681.8389892578	      193.1859403849	      548.9169508219	    -2681.2157630920	      132.5598657131	      577.0817548037	    -2713.2771015167	      127.3337453604	      454.0703669190	    -2757.4179172516	      111.8595302105	      490.9266605973	    -2847.0060825348	      734.4182133675	      238.1611913443	    -2880.6860446930	      639.5558118820	      266.0223320127	    -2932.7683448792	      769.9306607246	      348.8334603608	    -2951.7400264740	      674.3861436844	      356.5633129328	    -2913.5861396790	      526.4202356339	      287.5517904758	    -2976.3157367706	      559.1647028923	      365.8178728074	    -2933.3424568176	      347.0146656036	      365.0713711977	    -2913.2297039032	      246.5841770172	      372.4578972906	    -2888.1385326385	      294.7949767113	      297.8041172028	    -2867.9745197296	      122.9685246944	      328.3810168505	    -2804.3227195740	       89.8482352495	      363.1337340921	    -2952.7254104614	      110.2873235941	      382.3958813155	     -300.7080554962	        0.0000000000	      382.1262419224	    -2975.0201702118	       59.8357357085	      314.2883479595	    -2985.4428768158	       64.0253573656	      439.3587186933	    -3040.0581359863	       75.3833726048	      403.4251812845	    -2680.1695823669	     1046.9478368759	      406.2540140003	    -2756.8297386169	       98.6380949616	      511.0389888287	    -3013.7534141541	      321.6242492199	      678.6097288132	    -2924.4449138641	       82.2584331036	      333.5054256022	    -2929.0993213654	      506.5997838974	      725.6147563457	    -2799.2029190063	      139.8887634277	      609.5467507839	     -300.7080554962	        0.0000000000	      382.1262419224	     -300.7080554962	        0.0000000000	      382.1262419224	     -300.7080554962	        0.0000000000	      382.1262419224	     -300.7080554962	        0.0000000000	      382.1262419224	     -300.7080554962	        0.0000000000	      382.1262419224	     -300.7080554962	        0.0000000000	      382.1262419224	     -300.7080554962	        0.0000000000	      382.1262419224	     -300.7080554962	        0.0000000000	      382.1262419224
